<svg width="21" height="19" viewBox="0 0 21 19" fill="none" xmlns="http://www.w3.org/2000/svg">
<path d="M18.28 1.42977C17.7819 1.13501 17.2138 0.979492 16.635 0.979492C16.0562 0.979492 15.4881 1.13501 14.99 1.42977L6 6.83977V3.99977C6 3.20412 5.68393 2.44106 5.12132 1.87845C4.55871 1.31584 3.79565 0.999767 3 0.999767C2.20435 0.999767 1.44129 1.31584 0.87868 1.87845C0.316071 2.44106 0 3.20412 0 3.99977V15.9998C0 16.7954 0.316071 17.5585 0.87868 18.1211C1.44129 18.6837 2.20435 18.9998 3 18.9998C3.79565 18.9998 4.55871 18.6837 5.12132 18.1211C5.68393 17.5585 6 16.7954 6 15.9998V13.1598L15 18.5298C15.5073 18.8352 16.0878 18.9976 16.68 18.9998C17.245 18.9993 17.8 18.851 18.29 18.5698C18.8203 18.2709 19.26 17.8344 19.5627 17.3064C19.8654 16.7783 20.02 16.1784 20.01 15.5698V4.41977C20.0172 3.81186 19.8603 3.21328 19.5558 2.68707C19.2514 2.16085 18.8106 1.7265 18.28 1.42977ZM4 15.9998C4 16.265 3.89464 16.5193 3.70711 16.7069C3.51957 16.8944 3.26522 16.9998 3 16.9998C2.73478 16.9998 2.48043 16.8944 2.29289 16.7069C2.10536 16.5193 2 16.265 2 15.9998V3.99977C2 3.73455 2.10536 3.4802 2.29289 3.29266C2.48043 3.10512 2.73478 2.99977 3 2.99977C3.26522 2.99977 3.51957 3.10512 3.70711 3.29266C3.89464 3.4802 4 3.73455 4 3.99977V15.9998ZM18 15.5798C18.0057 15.8328 17.9427 16.0827 17.8177 16.3029C17.6927 16.523 17.5103 16.7051 17.29 16.8298C17.0972 16.9472 16.8758 17.0094 16.65 17.0094C16.4242 17.0094 16.2028 16.9472 16.01 16.8298L6.68 11.2298C6.47128 11.0995 6.29914 10.9182 6.17981 10.703C6.06047 10.4878 5.99785 10.2458 5.99785 9.99977C5.99785 9.75371 6.06047 9.5117 6.17981 9.29652C6.29914 9.08134 6.47128 8.90007 6.68 8.76977L16 3.18977C16.2004 3.06321 16.433 2.99723 16.67 2.99977C16.8877 3.0032 17.101 3.06169 17.29 3.16977C17.5103 3.29447 17.6927 3.47656 17.8177 3.69668C17.9427 3.91679 18.0057 4.16669 18 4.41977V15.5798Z" fill="black"/>
</svg>
